<?xml version="1.0" encoding="utf-8"?>
<!-- Generator: Adobe Illustrator 21.1.0, SVG Export Plug-In . SVG Version: 6.00 Build 0)  -->
<svg version="1.1" id="Layer_1" xmlns="http://www.w3.org/2000/svg" xmlns:xlink="http://www.w3.org/1999/xlink" x="0px" y="0px"
	 viewBox="0 0 211 122.9" style="enable-background:new 0 0 211 122.9;" xml:space="preserve">
<style type="text/css">
	.st0{fill:#5F7450;stroke:#5B4C45;stroke-width:3;stroke-miterlimit:10;}
	.st1{fill:#F7AC63;stroke:#5B4C45;stroke-width:3;stroke-miterlimit:10;}
	.st2{opacity:0.39;fill:#D75D37;}
	.st3{fill:#BE681E;}
	.st4{fill:#BBC987;stroke:#5B4C45;stroke-width:3;stroke-miterlimit:10;}
	.st5{fill:#5B4C45;}
</style>
<g>
	<g>
		<path class="st0" d="M144.1,44.9c-7.6,9.4-38.7,13.2-38.7,13.2s-2.8-31.2,4.8-40.6c7.6-9.4,21.3-10.8,30.7-3.3
			S151.6,35.6,144.1,44.9z"/>
		<path class="st1" d="M78.2,121.5c-5.7-26.2-8.9-50.7-5.9-56.6c4.7-9.3,60.7-9.3,65.4,0c3.1,6-0.2,30.6-5.9,56.8"/>
		<path class="st2" d="M116.7,120.6c8-31.2,17.2-59.6,19.9-56c3.8,5,0.7,29.6-5.1,56"/>
		<path class="st3" d="M73.9,93h17.8c1.5,0,2.7,1.2,2.7,2.7v0c0,1.5-1.2,2.7-2.7,2.7H74.6"/>
		<path class="st3" d="M72.5,82h10.9c1.5,0,2.7,1.2,2.7,2.7v0c0,1.5-1.2,2.7-2.7,2.7H73.1"/>
		<path class="st4" d="M126.9,23.3c0,12.1-21.8,34.6-21.8,34.6S83.2,35.4,83.2,23.3S93,1.5,105,1.5S126.9,11.3,126.9,23.3z"/>
		<path class="st0" d="M66.3,44.9c7.6,9.4,38.7,13.2,38.7,13.2s2.8-31.2-4.8-40.6c-7.6-9.4-21.3-10.8-30.7-3.3S58.7,35.6,66.3,44.9z
			"/>
	</g>
	<path class="st5" d="M208.6,122.9H2.4c-1.3,0-2.4-1.1-2.4-2.4l0,0c0-1.3,1.1-2.4,2.4-2.4h206.2c1.3,0,2.4,1.1,2.4,2.4l0,0
		C211,121.9,209.9,122.9,208.6,122.9z"/>
</g>
</svg>
