<?xml version="1.0" encoding="utf-8"?>
<!-- Generator: Adobe Illustrator 21.1.0, SVG Export Plug-In . SVG Version: 6.00 Build 0)  -->
<svg version="1.1" id="Layer_1" xmlns="http://www.w3.org/2000/svg" xmlns:xlink="http://www.w3.org/1999/xlink" x="0px" y="0px"
	 viewBox="0 0 176 128" style="enable-background:new 0 0 176 128;" xml:space="preserve">
<style type="text/css">
	.st0{fill:#EEEEED;stroke:#5B4C45;stroke-width:3;stroke-miterlimit:10;}
</style>
<path class="st0" d="M155.3,49.3C152.9,22.5,130.4,1.5,103,1.5c-27.1,0-49.5,20.6-52.2,47H27C13,48.5,1.5,60,1.5,74v0
	C1.5,88,13,99.5,27,99.5h28.5c0,0.5,0,1,0,1.5v0c0,14,11.5,25.5,25.5,25.5h54c14,0,25.5-11.5,25.5-25.5v0c0-1.4-0.1-2.8-0.3-4.1
	c8.5-4.2,14.3-12.9,14.3-22.9v0C174.5,62.1,166.3,52.1,155.3,49.3z"/>
</svg>
