<?xml version="1.0" encoding="utf-8"?>
<!-- Generator: Adobe Illustrator 21.1.0, SVG Export Plug-In . SVG Version: 6.00 Build 0)  -->
<svg version="1.1" id="Layer_1" xmlns="http://www.w3.org/2000/svg" xmlns:xlink="http://www.w3.org/1999/xlink" x="0px" y="0px"
	 viewBox="0 0 176 169.6" style="enable-background:new 0 0 176 169.6;" xml:space="preserve">
<style type="text/css">
	.st0{fill:#575756;stroke:#5B4C45;stroke-width:3;stroke-miterlimit:10;}
	.st1{fill:#6F6F6E;stroke:#5B4C45;stroke-width:2;stroke-miterlimit:10;}
	.st2{fill:#3A6070;stroke:#5B4C45;stroke-width:2;stroke-miterlimit:10;}
</style>
<path class="st0" d="M155.3,49.3C152.9,22.5,130.4,1.5,103,1.5c-27.1,0-49.5,20.6-52.2,47H27C13,48.5,1.5,60,1.5,74v0
	C1.5,88,13,99.5,27,99.5h49.8c7.7,4.4,16.6,7,26.2,7c9.5,0,18.5-2.6,26.2-7H149c14,0,25.5-11.5,25.5-25.5v0
	C174.5,62.1,166.3,52.1,155.3,49.3z"/>
<path class="st1" d="M148.2,65h-9.7c-3.6-13.9-16.1-24.1-31.1-24.1S79.8,51.1,76.2,65h-32c-10.4,0-19,8.5-19,19v3.9
	c0,10.4,8.5,19,19,19h104c10.4,0,19-8.5,19-19V84C167.1,73.5,158.6,65,148.2,65z"/>
<g>
	<path class="st2" d="M64.3,126.1c-1.1,2.8-4.3,4.1-7.1,3c-2.8-1.1-4.1-4.3-3-7.1c1.1-2.8,9.1-8.2,9.1-8.2S65.4,123.3,64.3,126.1z"
		/>
	<path class="st2" d="M85.7,141.8c-1.1,2.8-4.3,4.1-7.1,3c-2.8-1.1-4.1-4.3-3-7.1c1.1-2.8,9.1-8.2,9.1-8.2S86.8,139,85.7,141.8z"/>
	<path class="st2" d="M58.9,165.2c-1.1,2.8-4.3,4.1-7.1,3s-4.1-4.3-3-7.1c1.1-2.8,9.1-8.2,9.1-8.2S60,162.4,58.9,165.2z"/>
	<path class="st2" d="M93.1,165.2c-1.1,2.8-4.3,4.1-7.1,3c-2.8-1.1-4.1-4.3-3-7.1c1.1-2.8,9.1-8.2,9.1-8.2S94.2,162.4,93.1,165.2z"
		/>
	<path class="st2" d="M123.2,157.4c-1.1,2.8-4.3,4.1-7.1,3c-2.8-1.1-4.1-4.3-3-7.1c1.1-2.8,9.1-8.2,9.1-8.2S124.4,154.6,123.2,157.4
		z"/>
	<path class="st2" d="M112.4,126.1c-1.1,2.8-4.3,4.1-7.1,3c-2.8-1.1-4.1-4.3-3-7.1c1.1-2.8,9.1-8.2,9.1-8.2S113.5,123.3,112.4,126.1
		z"/>
</g>
</svg>
